<?xml version="1.0" encoding="UTF-8"?>
<svg width="16px" height="16px" viewBox="0 0 16 16" version="1.1" xmlns="http://www.w3.org/2000/svg" xmlns:xlink="http://www.w3.org/1999/xlink">
    <title>ic_line7</title>
    <defs>
        <rect id="path-1" x="0" y="0" width="16" height="16"></rect>
    </defs>
    <g id="页面-1" stroke="none" stroke-width="1" fill="none" fill-rule="evenodd">
        <g id="01" transform="translate(-381.000000, -245.000000)">
            <g id="ic_line7" transform="translate(381.000000, 245.000000)">
                <mask id="mask-2" fill="white">
                    <use xlink:href="#path-1"></use>
                </mask>
                <g id="蒙版"></g>
                <path d="M5,11 L5,16 L0,16 L0,11 L5,11 Z M4,12 L1,12 L1,15 L4,15 L4,12 Z M16,0 L16,5 L11,5 L11,0 L16,0 Z M15,1 L12,1 L12,4 L15,4 L15,1 Z M14,5 C14,6.99506905 12.0224619,7.94787079 8.31311573,7.99791627 L8,8 C4.67581893,8 3.09425232,8.94423418 3.00409458,10.826318 L3,11 L2,11 C2,8.39944152 3.98569509,7.06913638 7.70294049,7.00262538 L8,7 C11.3185557,7 12.9026857,6.32565105 12.9956462,5.11505974 L13,5 L14,5 Z" id="形状结合" fill="#FFFFFF" mask="url(#mask-2)"></path>
            </g>
        </g>
    </g>
</svg>