<?xml version="1.0" encoding="UTF-8"?>
<svg width="16px" height="16px" viewBox="0 0 16 16" version="1.1" xmlns="http://www.w3.org/2000/svg" xmlns:xlink="http://www.w3.org/1999/xlink">
    <title>ic_line8</title>
    <defs>
        <rect id="path-1" x="0" y="0" width="16" height="16"></rect>
    </defs>
    <g id="页面-1" stroke="none" stroke-width="1" fill="none" fill-rule="evenodd">
        <g id="01" transform="translate(-381.000000, -271.000000)">
            <g id="ic_line8" transform="translate(381.000000, 271.000000)">
                <mask id="mask-2" fill="white">
                    <use xlink:href="#path-1"></use>
                </mask>
                <g id="蒙版"></g>
                <path d="M5,11 L5,16 L0,16 L0,11 L5,11 Z M4,12 L1,12 L1,15 L4,15 L4,12 Z M16,0 L16,5 L11,5 L11,0 L16,0 Z M15,1 L12,1 L12,4 L15,4 L15,1 Z M11,2 L11,3 C9.40763793,3 8.55271268,4.4788984 8.50236125,7.69353483 L8.5,8 C8.5,11.8033148 7.41719742,13.8885401 5.18362369,13.9956549 L5,14 L5,13 C6.59236207,13 7.44728732,11.5211016 7.49763875,8.30646517 L7.5,8 C7.5,4.19668517 8.58280258,2.11145988 10.8163763,2.00434506 L11,2 Z" id="形状结合" fill="#FFFFFF" mask="url(#mask-2)"></path>
            </g>
        </g>
    </g>
</svg>