<?xml version="1.0" encoding="UTF-8"?>
<svg width="16px" height="16px" viewBox="0 0 16 16" version="1.1" xmlns="http://www.w3.org/2000/svg" xmlns:xlink="http://www.w3.org/1999/xlink">
    <title>ic_line5</title>
    <defs>
        <rect id="path-1" x="0" y="0" width="16" height="16"></rect>
    </defs>
    <g id="页面-1" stroke="none" stroke-width="1" fill="none" fill-rule="evenodd">
        <g id="01" transform="translate(-381.000000, -193.000000)">
            <g id="ic_line5" transform="translate(381.000000, 193.000000)">
                <mask id="mask-2" fill="white">
                    <use xlink:href="#path-1"></use>
                </mask>
                <g id="蒙版"></g>
                <path d="M16,0 L16,5 L11.641,5 L8.226,7.134 L9.74398912,9.15865216 L5,11.794 L5,16 L0,16 L0,11 L4.369,11 L8.255,8.841 L6.77338358,6.86451144 L11,4.223 L11,0 L16,0 Z M4,12 L1,12 L1,15 L4,15 L4,12 Z M15,1 L12,1 L12,4 L15,4 L15,1 Z" id="形状结合" fill="#FFFFFF" mask="url(#mask-2)"></path>
            </g>
        </g>
    </g>
</svg>