<?xml version="1.0" encoding="UTF-8"?>
<svg width="16px" height="16px" viewBox="0 0 16 16" version="1.1" xmlns="http://www.w3.org/2000/svg" xmlns:xlink="http://www.w3.org/1999/xlink">
    <title>ic_connect</title>
    <defs>
        <rect id="path-1" x="0" y="0" width="16" height="16"></rect>
    </defs>
    <g id="页面-1" stroke="none" stroke-width="1" fill="none" fill-rule="evenodd">
        <g id="01" transform="translate(-302.000000, -12.000000)">
            <g id="T">
                <g id="编组-5" transform="translate(13.000000, 11.000000)">
                    <g id="编组-4备份" transform="translate(289.000000, 1.000000)">
                        <g id="ic_connect">
                            <mask id="mask-2" fill="white">
                                <use xlink:href="#path-1"></use>
                            </mask>
                            <g id="蒙版"></g>
                            <path d="M2,7.5 L13,7.5 L13,5 L11,5 L11,0 L16,0 L16,5 L14,5 L14,8.5 L3,8.5 L3,11 L5,11 L5,16 L0,16 L0,11 L2,11 L2,7.5 Z M4,12 L1,12 L1,15 L4,15 L4,12 Z M15,1 L12,1 L12,4 L15,4 L15,1 Z" id="形状结合" fill="#FFFFFF" mask="url(#mask-2)"></path>
                            <path d="M8,3.2 L6.8,4.3 L7.6,4.3 L7.6,6.3 L8.4,6.3 L8.4,4.3 L9.2,4.3 L8,3.2 Z" id="形状结合" fill="#FFFFFF" mask="url(#mask-2)"></path>
                            <path d="M7.6,9.7 L7.6,11.7 L6.8,11.7 L8,12.8 L9.2,11.7 L8.4,11.7 L8.4,9.7 L7.6,9.7 Z" id="形状结合" fill="#FFFFFF" mask="url(#mask-2)"></path>
                        </g>
                    </g>
                </g>
            </g>
        </g>
    </g>
</svg>