<?xml version="1.0" encoding="UTF-8"?>
<svg width="16px" height="16px" viewBox="0 0 16 16" version="1.1" xmlns="http://www.w3.org/2000/svg" xmlns:xlink="http://www.w3.org/1999/xlink">
    <title>2</title>
    <defs>
        <polygon id="path-1" points="0 0 16 0 16 16 0 16"></polygon>
    </defs>
    <g id="页面-1" stroke="none" stroke-width="1" fill="none" fill-rule="evenodd">
        <g id="画板" transform="translate(-123.000000, -170.000000)">
            <g id="编组-2" transform="translate(123.000000, 134.000000)">
                <g id="2" transform="translate(0.000000, 36.000000)">
                    <g id="Group">
                        <g id="Shape">
                            <mask id="mask-2" fill="white">
                                <use xlink:href="#path-1"></use>
                            </mask>
                            <g id="蒙版"></g>
                            <path d="M4,2.5 L16,2.5 L16,1.5 L4,1.5 L4,2.5 Z M16,14.5 L16,13.5 L4,13.5 L4,14.5 L16,14.5 Z M2,13 L2,15 L8.8817842e-15,15 L8.8817842e-15,13 L2,13 Z M2,7 L2,9 L8.8817842e-15,9 L8.8817842e-15,7 L2,7 Z M16,7.5 L16,8.5 L4,8.5 L4,7.5 L16,7.5 Z M2,1 L2,3 L8.8817842e-15,3 L8.8817842e-15,1 L2,1 Z" fill="#FFFFFF" mask="url(#mask-2)"></path>
                        </g>
                    </g>
                </g>
            </g>
        </g>
    </g>
</svg>