<?xml version="1.0" encoding="UTF-8"?>
<svg width="16px" height="16px" viewBox="0 0 16 16" version="1.1" xmlns="http://www.w3.org/2000/svg" xmlns:xlink="http://www.w3.org/1999/xlink">
    <title>3</title>
    <g id="页面-1" stroke="none" stroke-width="1" fill="none" fill-rule="evenodd">
        <g id="画板" transform="translate(-123.000000, -206.000000)">
            <g id="编组-2" transform="translate(123.000000, 134.000000)">
                <g id="3" transform="translate(0.000000, 72.000000)">
                    <g id="Group">
                        <polygon id="Shape" points="0 0 16 0 16 16 0 16"></polygon>
                        <path d="M16,12 L16,11 L8,11 L8,12 L16,12 Z M5,12 L5,4 L0,8 L5,12 Z M16,15.5 L16,14.5 L0,14.5 L0,15.5 L16,15.5 Z M-2.84217094e-14,1.5 L16,1.5 L16,0.5 L-2.84217094e-14,0.5 L-2.84217094e-14,1.5 Z M16,5 L16,4 L8,4 L8,5 L16,5 Z M16,8.5 L16,7.5 L8,7.5 L8,8.5 L16,8.5 Z" id="Shape" fill="#FFFFFF"></path>
                    </g>
                </g>
            </g>
        </g>
    </g>
</svg>