<?xml version="1.0" encoding="UTF-8"?>
<svg width="16px" height="16px" viewBox="0 0 16 16" version="1.1" xmlns="http://www.w3.org/2000/svg" xmlns:xlink="http://www.w3.org/1999/xlink">
    <title>1</title>
    <defs>
        <polygon id="path-1" points="0 0 16 0 16 16 0 16"></polygon>
    </defs>
    <g id="页面-1" stroke="none" stroke-width="1" fill="none" fill-rule="evenodd">
        <g id="画板" transform="translate(-123.000000, -134.000000)">
            <g id="编组-2" transform="translate(123.000000, 134.000000)">
                <g id="1">
                    <g id="Group">
                        <g id="Shape">
                            <mask id="mask-2" fill="white">
                                <use xlink:href="#path-1"></use>
                            </mask>
                            <g id="蒙版"></g>
                            <path d="M2,13 L2,13.5 L1,13.5 L1,14.5 L2,14.5 L2,15 L7.10542736e-15,15 L7.10542736e-15,16 L3,16 L3,12 L7.10542736e-15,12 L7.10542736e-15,13 L2,13 Z M2,4 L2,0 L7.10542736e-15,0 L7.10542736e-15,1 L1,1 L1,4 L2,4 Z M1.8,7 L7.10542736e-15,9.1 L7.10542736e-15,10 L3,10 L3,9 L1.2,9 L3,6.9 L3,6 L7.10542736e-15,6 L7.10542736e-15,7 L1.8,7 Z M5,2.5 L16,2.5 L16,1.5 L5,1.5 L5,2.5 Z M16,14.5 L16,13.5 L5,13.5 L5,14.5 L16,14.5 Z M16,8.5 L16,7.5 L5,7.5 L5,8.5 L16,8.5 Z" fill="#FFFFFF" mask="url(#mask-2)"></path>
                        </g>
                    </g>
                </g>
            </g>
        </g>
    </g>
</svg>