<?xml version="1.0" encoding="UTF-8"?>
<svg width="16px" height="16px" viewBox="0 0 16 16" version="1.1" xmlns="http://www.w3.org/2000/svg" xmlns:xlink="http://www.w3.org/1999/xlink">
    <title>13</title>
    <defs>
        <polygon id="path-1" points="0 0 16 0 16 16 0 16"></polygon>
    </defs>
    <g id="页面-1" stroke="none" stroke-width="1" fill="none" fill-rule="evenodd">
        <g id="画板" transform="translate(-231.000000, -134.000000)">
            <g id="13" transform="translate(231.000000, 134.000000)">
                <g id="Group">
                    <g id="Shape">
                        <mask id="mask-2" fill="white">
                            <use xlink:href="#path-1"></use>
                        </mask>
                        <g id="蒙版"></g>
                        <path d="M8.712,16 C10.384,16 11.682,15.692 12.606,15.076 C13.684,14.328 14.234,13.184 14.234,11.6 C14.234,10.544 13.97,9.686 13.442,9.048 C12.914,8.41 12.122,7.992 11.088,7.794 C11.88,7.508 12.474,7.068 12.914,6.496 C13.354,5.88 13.574,5.132 13.574,4.252 C13.574,3.042 13.156,2.096 12.32,1.392 C11.44,0.644 10.252,0.292 8.712,0.292 L1.54,0.292 L1.54,16 L8.712,16 Z M8.074,6.958 L3.938,6.958 L3.938,2.272 L8.118,2.272 C9.174,2.272 9.966,2.448 10.45,2.822 C10.934,3.174 11.176,3.746 11.176,4.538 C11.176,5.374 10.934,5.99 10.45,6.386 C9.966,6.76 9.174,6.958 8.074,6.958 Z M8.382,14.02 L3.938,14.02 L3.938,8.916 L8.448,8.916 C9.592,8.916 10.45,9.114 11,9.532 C11.55,9.95 11.836,10.632 11.836,11.556 C11.836,12.458 11.462,13.118 10.758,13.536 C10.186,13.844 9.394,14.02 8.382,14.02 Z" id="B" fill="#FFFFFF" fill-rule="nonzero" mask="url(#mask-2)"></path>
                    </g>
                </g>
            </g>
        </g>
    </g>
</svg>