<?xml version="1.0" encoding="UTF-8"?>
<svg width="16px" height="16px" viewBox="0 0 16 16" version="1.1" xmlns="http://www.w3.org/2000/svg" xmlns:xlink="http://www.w3.org/1999/xlink">
    <title>9</title>
    <defs>
        <polygon id="path-1" points="0 0 16 0 16 16 0 16"></polygon>
    </defs>
    <g id="页面-1" stroke="none" stroke-width="1" fill="none" fill-rule="evenodd">
        <g id="画板" transform="translate(-159.000000, -278.000000)">
            <g id="编组-4" transform="translate(159.000000, 134.000000)">
                <g id="9" transform="translate(0.000000, 144.000000)">
                    <g id="Shape">
                        <mask id="mask-2" fill="white">
                            <use xlink:href="#path-1"></use>
                        </mask>
                        <g id="蒙版"></g>
                        <polygon fill="#FFFFFF" mask="url(#mask-2)" points="3 0 3 2 6 2 3 11 8 11 5 11 8 2 11 2 11 0"></polygon>
                        <polygon fill="#FFFFFF" mask="url(#mask-2)" points="0 12.5 0 13 8 13 8 12.5"></polygon>
                        <path d="M13,8 L13,10.999 L16,11 L16,13 L13,12.999 L13,16 L11,16 L11,12.999 L8,13 L8,11 L11,10.999 L11,8 L13,8 Z" id="形状结合" fill="#FFFFFF" mask="url(#mask-2)" transform="translate(12.000000, 12.000000) rotate(-45.000000) translate(-12.000000, -12.000000) "></path>
                    </g>
                </g>
            </g>
        </g>
    </g>
</svg>