<?xml version="1.0" encoding="UTF-8"?>
<svg width="16px" height="16px" viewBox="0 0 16 16" version="1.1" xmlns="http://www.w3.org/2000/svg" xmlns:xlink="http://www.w3.org/1999/xlink">
    <title>5</title>
    <defs>
        <polygon id="path-1" points="0 0 16 0 16 16 0 16"></polygon>
    </defs>
    <g id="页面-1" stroke="none" stroke-width="1" fill="none" fill-rule="evenodd">
        <g id="画板" transform="translate(-159.000000, -134.000000)">
            <g id="编组-4" transform="translate(159.000000, 134.000000)">
                <g id="5">
                    <g id="Group">
                        <g id="Shape">
                            <mask id="mask-2" fill="white">
                                <use xlink:href="#path-1"></use>
                            </mask>
                            <g id="蒙版"></g>
                            <polygon fill="#FFFFFF" mask="url(#mask-2)" transform="translate(6.949747, 6.949747) rotate(-90.000000) translate(-6.949747, -6.949747) " points="11.8994949 2.70710678 11.1923882 2 6.94974747 6.24264069 2.70710678 2 2 2.70710678 6.24264069 6.94974747 2 11.1923882 2.70710678 11.8994949 6.94974747 7.65685425 11.1923882 11.8994949 11.8994949 11.1923882 7.65685425 6.94974747"></polygon>
                            <path d="M13,13 L15,13 L15,12 L13,12 L13,11 L16,11 L16,14 L14,14 L14,15 L16,15 L16,16 L13,16 L13,13 Z" id="形状结合" fill="#FFFFFF" mask="url(#mask-2)"></path>
                        </g>
                    </g>
                </g>
            </g>
        </g>
    </g>
</svg>