<?xml version="1.0" encoding="UTF-8"?>
<svg width="16px" height="16px" viewBox="0 0 16 16" version="1.1" xmlns="http://www.w3.org/2000/svg" xmlns:xlink="http://www.w3.org/1999/xlink">
    <title>6</title>
    <defs>
        <polygon id="path-1" points="0 0 16 0 16 16 0 16"></polygon>
    </defs>
    <g id="页面-1" stroke="none" stroke-width="1" fill="none" fill-rule="evenodd">
        <g id="画板" transform="translate(-159.000000, -170.000000)">
            <g id="编组-4" transform="translate(159.000000, 134.000000)">
                <g id="6" transform="translate(0.000000, 36.000000)">
                    <g id="Group">
                        <g id="Shape">
                            <mask id="mask-2" fill="white">
                                <use xlink:href="#path-1"></use>
                            </mask>
                            <g id="蒙版"></g>
                            <polygon fill="#FFFFFF" mask="url(#mask-2)" transform="translate(6.949747, 10.949747) rotate(-90.000000) translate(-6.949747, -10.949747) " points="11.8994949 6.70710678 11.1923882 6 6.94974747 10.2426407 2.70710678 6 2 6.70710678 6.24264069 10.9497475 2 15.1923882 2.70710678 15.8994949 6.94974747 11.6568542 11.1923882 15.8994949 11.8994949 15.1923882 7.65685425 10.9497475"></polygon>
                            <path d="M13,2 L15,2 L15,1 L13,1 L13,0 L16,0 L16,3 L14,3 L14,4 L16,4 L16,5 L13,5 L13,2 Z" id="形状结合" fill="#FFFFFF" mask="url(#mask-2)"></path>
                        </g>
                    </g>
                </g>
            </g>
        </g>
    </g>
</svg>