<?xml version="1.0" encoding="UTF-8"?>
<svg width="16px" height="16px" viewBox="0 0 16 16" version="1.1" xmlns="http://www.w3.org/2000/svg" xmlns:xlink="http://www.w3.org/1999/xlink">
    <title>15</title>
    <defs>
        <polygon id="path-1" points="0 0 16 0 16 16 0 16"></polygon>
    </defs>
    <g id="页面-1" stroke="none" stroke-width="1" fill="none" fill-rule="evenodd">
        <g id="画板" transform="translate(-231.000000, -206.000000)">
            <g id="15" transform="translate(231.000000, 206.000000)">
                <g id="Group">
                    <g id="Shape">
                        <mask id="mask-2" fill="white">
                            <use xlink:href="#path-1"></use>
                        </mask>
                        <g id="蒙版"></g>
                        <path d="M14,6 L14,7.10542736e-15 L11.5,7.10542736e-15 L11.5,6 C11.5,7.93 9.93,9.5 8,9.5 C6.07,9.5 4.5,7.93 4.5,6 L4.5,7.10542736e-15 L2,7.10542736e-15 L2,6 C2,9.31 4.69,12 8,12 C11.31,12 14,9.31 14,6 Z M1,16 L15,16 L15,14.5 L1,14.5 L1,16 Z" fill="#FFFFFF" mask="url(#mask-2)"></path>
                    </g>
                </g>
            </g>
        </g>
    </g>
</svg>