<?xml version="1.0" encoding="UTF-8"?>
<svg width="16px" height="16px" viewBox="0 0 16 16" version="1.1" xmlns="http://www.w3.org/2000/svg" xmlns:xlink="http://www.w3.org/1999/xlink">
    <title>ic_connect</title>
    <defs>
        <rect id="path-1" x="0" y="0" width="16" height="16"></rect>
    </defs>
    <g id="页面-1" stroke="none" stroke-width="1" fill="none" fill-rule="evenodd">
        <g id="01" transform="translate(-302.000000, -12.000000)">
            <g id="T">
                <g id="编组-5" transform="translate(13.000000, 11.000000)">
                    <g id="编组-4备份" transform="translate(289.000000, 1.000000)">
                        <g id="ic_connect">
                            <mask id="mask-2" fill="white">
                                <use xlink:href="#path-1"></use>
                            </mask>
                            <g id="蒙版"></g>
                            <path d="M0,7.3 L1.4,7.3 L1.4,8.7 L0,8.7 Z M0.3,7.6 L1.1,7.6 L1.1,8.4 L0.3,8.4 Z" id="形状结合" fill="#FFFFFF" mask="url(#mask-2)"></path>
                            <path d="M1.7,7.3 L11.5,7.3 L9.5,4.8 L10.5,3.8 L14,8 L10.5,12.2 L9.5,11.2 L11.5,8.7 L1.7,8.7 Z M2,7.6 L12.22,7.6 L9.97,4.85 L10.5,4.32 L13.58,8 L10.45,11.73 L9.92,11.2 L12.22,8.4 L2,8.4" id="形状结合" fill="#FFFFFF" mask="url(#mask-2)"></path>
                            <path d="M14.3,7.3 L15.7,7.3 L15.7,8.7 L14.3,8.7 Z M14.6,7.6 L15.4,7.6 L15.4,8.4 L14.6,8.4 Z" id="形状结合" fill="#FFFFFF" mask="url(#mask-2)"></path>
                        </g>
                    </g>
                </g>
            </g>
        </g>
    </g>
</svg>