<?xml version="1.0" encoding="UTF-8"?>
<svg width="16px" height="16px" viewBox="0 0 16 16" version="1.1" xmlns="http://www.w3.org/2000/svg" xmlns:xlink="http://www.w3.org/1999/xlink">
    <title>10</title>
    <defs>
        <polygon id="path-1" points="0 0 16 0 16 16 0 16"></polygon>
    </defs>
    <g id="页面-1" stroke="none" stroke-width="1" fill="none" fill-rule="evenodd">
        <g id="画板" transform="translate(-195.000000, -134.000000)">
            <g id="编组-3" transform="translate(195.000000, 134.000000)">
                <g id="10">
                    <g id="Group">
                        <g id="Shape">
                            <mask id="mask-2" fill="white">
                                <use xlink:href="#path-1"></use>
                            </mask>
                            <g id="蒙版"></g>
                            <path d="M16,14.5 L16,16 L0,16 L0,14.5 L16,14.5 Z M9.54545455,2 L12,4.45454545 L5.45454545,11 L3,11 L3,8.54545455 L9.54545455,2 Z M7,11 L13,11 L13,10.5 L7,10.5 Z M11.3061224,0.194918784 C11.5660142,-0.0649729279 11.9858392,-0.0649729279 12.2457309,0.194918784 L12.2457309,0.194918784 L13.8050812,1.75426905 C14.0649729,2.01416077 14.0649729,2.43398584 13.8050812,2.69387755 L13.8050812,2.69387755 L12.4989588,4 L10,1.50104123 Z" id="形状结合" fill="#FFFFFF" mask="url(#mask-2)"></path>
                        </g>
                    </g>
                </g>
            </g>
        </g>
    </g>
</svg>