<?xml version="1.0" encoding="UTF-8"?>
<svg width="18px" height="18px" viewBox="0 0 18 18" version="1.1" xmlns="http://www.w3.org/2000/svg" xmlns:xlink="http://www.w3.org/1999/xlink">
    <title>3</title>
    <defs>
        <rect id="path-1" x="0" y="0" width="18" height="18"></rect>
    </defs>
    <g id="页面-1" stroke="none" stroke-width="1" fill="none" fill-rule="evenodd">
        <g id="01" transform="translate(-465.000000, -169.000000)">
            <g id="3" transform="translate(465.000000, 169.000000)">
                <mask id="mask-2" fill="white">
                    <use xlink:href="#path-1"></use>
                </mask>
                <g id="蒙版"></g>
                <g id="编组" mask="url(#mask-2)">
                    <g transform="translate(1.000000, -2.000000)">
                        <path d="M8.5,14 L8.5,16.499 L11,16.5 L8.01471863,19.5 L5.01471863,16.5 L7.5,16.499 L7.5,14 L8.5,14 Z M10,0 L11,0 L11,7 L15,7 L15,0 L16,0 L16,8 L11,8 L11,13 L5,13 L4.999,8 L0,8 L0,0 L1,0 L1,7 L4.999,7 L5,2 L5,2 L5,0 L6,0 L6,8 L5.999,8 L6,12 L10,12 L10,0 Z" id="形状结合" fill="#FFFFFF" fill-rule="nonzero"></path>
                        <rect id="矩形" fill="#FF6764" fill-rule="evenodd" x="6" y="2" width="4" height="10"></rect>
                    </g>
                </g>
                <g id="编组-48" mask="url(#mask-2)">
                    <g transform="translate(9.000000, 2.000000) scale(1, -1) translate(-9.000000, -2.000000) translate(1.000000, -2.000000)"></g>
                </g>
            </g>
        </g>
    </g>
</svg>