<?xml version="1.0" encoding="UTF-8"?>
<svg width="18px" height="18px" viewBox="0 0 18 18" version="1.1" xmlns="http://www.w3.org/2000/svg" xmlns:xlink="http://www.w3.org/1999/xlink">
    <title>6</title>
    <defs>
        <rect id="path-1" x="0" y="0" width="18" height="18"></rect>
    </defs>
    <g id="页面-1" stroke="none" stroke-width="1" fill="none" fill-rule="evenodd">
        <g id="01" transform="translate(-465.000000, -263.000000)">
            <g id="6" transform="translate(465.000000, 263.000000)">
                <mask id="mask-2" fill="white">
                    <use xlink:href="#path-1"></use>
                </mask>
                <g id="蒙版"></g>
                <g id="编组" mask="url(#mask-2)">
                    <g transform="translate(8.500000, 9.000000) rotate(-90.000000) translate(-8.500000, -9.000000) translate(0.500000, -0.500000)">
                        <path d="M8.5,13 L8.5,15.499 L11,15.5 L8.01471863,18.5 L5.01471863,15.5 L7.5,15.499 L7.5,13 L8.5,13 Z M10,-7.10542736e-15 L11,-7.10542736e-15 L11,7 L15,7 L15,-8.8817842e-15 L16,-8.8817842e-15 L16,8 L10.999,8 L11,12 L5,12 L4.999,7.999 L-3.44502205e-13,8 L-3.46500606e-13,-7.10542736e-15 L1,-7.10542736e-15 L1,7 L5,7 L5,-8.8817842e-15 L6,-8.8817842e-15 L6,11 L10,11 L10,-7.10542736e-15 Z" id="形状结合" fill="#FFFFFF" fill-rule="nonzero"></path>
                        <rect id="矩形" fill="#FF6764" fill-rule="evenodd" x="6" y="1" width="4" height="10"></rect>
                    </g>
                </g>
                <g id="编组-48" mask="url(#mask-2)">
                    <g transform="translate(3.000000, 9.000000) scale(1, -1) rotate(-270.000000) translate(-3.000000, -9.000000) translate(-5.000000, 5.000000)"></g>
                </g>
            </g>
        </g>
    </g>
</svg>