<?xml version="1.0" encoding="UTF-8"?>
<svg width="18px" height="18px" viewBox="0 0 18 18" version="1.1" xmlns="http://www.w3.org/2000/svg" xmlns:xlink="http://www.w3.org/1999/xlink">
    <title>1</title>
    <defs>
        <rect id="path-1" x="0" y="0" width="18" height="18"></rect>
    </defs>
    <g id="页面-1" stroke="none" stroke-width="1" fill="none" fill-rule="evenodd">
        <g id="01" transform="translate(-465.000000, -113.000000)">
            <g id="1" transform="translate(465.000000, 113.000000)">
                <mask id="mask-2" fill="white">
                    <use xlink:href="#path-1"></use>
                </mask>
                <g id="蒙版"></g>
                <path d="M1,6 L5,6 L5,0 L6,0 L6,7 L3.5,7 L3.5,8.499 L6,8.5 L3.01471863,11.5 L0.0147186258,8.5 L2.5,8.499 L2.5,7 L-2.66453526e-15,7 L-2.66453526e-15,0 L1,0 L1,6 Z" id="形状结合" fill="#FFFFFF" fill-rule="nonzero" mask="url(#mask-2)"></path>
                <rect id="矩形" fill="#A8C3F8" mask="url(#mask-2)" x="1" y="0" width="4" height="6"></rect>
                <path d="M11,18 L11,11 L7,11 L7,18 L6,18 L6,10 L18,10 L18,18 L17,18 L17,11 L13,11 L13,18 L11,18 Z" id="形状结合" fill="#FFFFFF" fill-rule="nonzero" mask="url(#mask-2)"></path>
            </g>
        </g>
    </g>
</svg>