<?xml version="1.0" encoding="UTF-8"?>
<svg width="16px" height="16px" viewBox="0 0 16 16" version="1.1" xmlns="http://www.w3.org/2000/svg" xmlns:xlink="http://www.w3.org/1999/xlink">
    <title>ic_bg</title>
    <defs>
        <rect id="path-1" x="0" y="0" width="16" height="16"></rect>
    </defs>
    <g id="页面-1" stroke="none" stroke-width="1" fill="none" fill-rule="evenodd">
        <g id="01" transform="translate(-404.000000, -12.000000)">
            <g id="T">
                <g id="编组-5" transform="translate(13.000000, 11.000000)">
                    <g id="编组-4备份-3" transform="translate(391.000000, 1.000000)">
                        <g id="ic_bg">
                            <mask id="mask-2" fill="white">
                                <use xlink:href="#path-1"></use>
                            </mask>
                            <g id="蒙版"></g>
                            <path d="M16,0 L16,16 L0,16 L0,0 L16,0 Z M5,11 L1,11 L1,15 L5,15 L5,11 Z M10,11 L6,11 L6,15 L10,15 L10,11 Z M15,11 L11,11 L11,15 L15,15 L15,11 Z M5,6 L1,6 L1,10 L5,10 L5,6 Z M10,6 L6,6 L6,10 L10,10 L10,6 Z M15,6 L11,6 L11,10 L15,10 L15,6 Z M5,1 L1,1 L1,5 L5,5 L5,1 Z M10,1 L6,1 L6,5 L10,5 L10,1 Z M15,1 L11,1 L11,5 L15,5 L15,1 Z" id="形状结合" fill="#FFFFFF" mask="url(#mask-2)"></path>
                        </g>
                    </g>
                </g>
            </g>
        </g>
    </g>
</svg>