<?xml version="1.0" encoding="UTF-8"?>
<svg width="16px" height="17px" viewBox="0 0 16 17" version="1.1" xmlns="http://www.w3.org/2000/svg" xmlns:xlink="http://www.w3.org/1999/xlink">
    <title>ic_en</title>
    <g id="页面-1" stroke="none" stroke-width="1" fill="none" fill-rule="evenodd">
        <g id="01" transform="translate(-1151.000000, -12.000000)">
            <g id="T">
                <g id="编组-6" transform="translate(1131.000000, 11.000000)">
                    <g id="ic_en" transform="translate(20.000000, 1.500000)">
                        <polygon id="矩形" points="0 1.0658141e-14 16 1.0658141e-14 16 16 0 16"></polygon>
                        <path d="M8.57142857,1.36035714 L8.57142857,4.553875 C9.26714286,4.51096429 9.94755357,4.38994643 10.6024821,4.19601786 C10.117,3.13517857 9.42941071,2.17225 8.57142857,1.36035714 Z M8.57142857,7.42857143 L11.4109464,7.42857143 C11.3649643,6.68517857 11.2296964,5.96010714 11.0126964,5.26603571 C10.2341607,5.50416071 9.416375,5.65241071 8.57142857,5.69867857 L8.57142857,7.42857143 Z M8.57142857,8.57142857 L8.57142857,10.3013214 C9.416375,10.3475714 10.2341607,10.4958393 11.0126964,10.7339643 C11.2296964,10.0398929 11.3649643,9.31482143 11.4109464,8.57142857 L8.57142857,8.57142857 Z M10.6024821,11.804 C9.94755357,11.6100714 9.26714286,11.4890536 8.57142857,11.4461429 L8.57142857,14.6396607 C9.42941071,13.82775 10.117,12.8648393 10.6024821,11.804 Z M7.42857143,1.36033929 C6.57058929,2.17225 5.883,3.13516071 5.39751786,4.196 C6.05244643,4.38992857 6.73285714,4.51094643 7.42857143,4.55385714 L7.42857143,1.36033929 Z M7.42857143,7.42857143 L7.42857143,5.69867857 C6.583625,5.65242857 5.76583929,5.50416071 4.98730357,5.26603571 C4.77030357,5.96010714 4.63503571,6.68517857 4.58905357,7.42857143 L7.42857143,7.42857143 Z M4.98730357,10.7339643 C5.76583929,10.4958393 6.583625,10.3475893 7.42857143,10.3013214 L7.42857143,8.57142857 L4.58905357,8.57142857 C4.63503571,9.31482143 4.77030357,10.0398929 4.98730357,10.7339643 Z M7.42857143,11.4461429 C6.73285714,11.4890536 6.05244643,11.6100714 5.39751786,11.804 C5.883,12.8648214 6.57058929,13.82775 7.42857143,14.6396429 L7.42857143,11.4461429 Z M8,1.0658141e-14 C10.6957143,1.0658141e-14 13.08,1.33332143 14.5294107,3.37646429 C15.4555714,4.68201786 16,6.27742857 16,8 C16,9.72257143 15.4555714,11.3179821 14.5294107,12.6235536 C13.08,14.6666786 10.6957143,16 8,16 C5.30428571,16 2.92,14.6666786 1.47058929,12.6235357 C0.544428571,11.3179821 0,9.72257143 0,8 C0,6.27742857 0.544428571,4.68201786 1.47058929,3.37646429 C2.92,1.33332143 5.30428571,1.0658141e-14 8,1.0658141e-14 Z M5.71576786,1.53264286 C4.74333929,1.87569643 3.860625,2.435 3.13223214,3.16967857 C3.51249156,3.40950838 3.91000981,3.62081381 4.32151786,3.80185714 C4.68798214,2.98321429 5.15830357,2.22121429 5.71576786,1.53264286 Z M11.6784821,3.80185714 C12.0899902,3.62081381 12.4875084,3.40950838 12.8677679,3.16967857 C12.139375,2.435 11.2566607,1.87569643 10.2842321,1.53264286 C10.8416786,2.22121429 11.3120179,2.98321429 11.6784821,3.80185714 Z M12.5558214,7.42857143 L14.8336786,7.42857143 C14.7305,6.17803571 14.2917679,5.022625 13.6077143,4.052625 C13.1245792,4.36749141 12.6157596,4.64106728 12.0866607,4.87044643 C12.3461786,5.68385714 12.5072321,6.54123214 12.5558214,7.42857143 Z M13.6077143,11.947375 C14.2917679,10.977375 14.7305,9.82198214 14.8336786,8.57142857 L12.5558214,8.57142857 C12.50725,9.45875 12.3461786,10.3161429 12.0866607,11.1295536 C12.6157594,11.358933 13.124579,11.6325089 13.6077143,11.947375 Z M12.8677679,12.8303214 C12.4875085,12.5904916 12.0899902,12.3791861 11.6784821,12.1981429 C11.3120179,13.0167857 10.8416964,13.7787857 10.2842321,14.4673571 C11.2566607,14.1243036 12.139375,13.565 12.8677679,12.8303214 Z M3.13223214,12.8303214 C3.860625,13.565 4.74333929,14.1243036 5.71576786,14.4673571 C5.15832143,13.7787857 4.68798214,13.0167857 4.32151786,12.1981429 C3.91000981,12.3791862 3.51249156,12.5904916 3.13223214,12.8303214 Z M3.44417857,8.57142857 L1.16632143,8.57142857 C1.2695,9.82196429 1.70823214,10.977375 2.39228571,11.947375 C2.87542083,11.6325086 3.38424042,11.3589327 3.91333929,11.1295536 C3.65382143,10.3161429 3.49276786,9.45876786 3.44417857,8.57142857 Z M2.39228571,4.052625 C1.70823214,5.022625 1.2695,6.17801786 1.16632143,7.42857143 L3.44642857,7.42857143 L3.91071429,4.875 L2.39228571,4.052625 Z" id="形状" fill="#FFFFFF" fill-rule="nonzero"></path>
                    </g>
                </g>
            </g>
        </g>
    </g>
</svg>