<?xml version="1.0" encoding="UTF-8"?>
<svg width="16px" height="16px" viewBox="0 0 16 16" version="1.1" xmlns="http://www.w3.org/2000/svg" xmlns:xlink="http://www.w3.org/1999/xlink">
    <title>ic_fd</title>
    <g id="页面-1" stroke="none" stroke-width="1" fill="none" fill-rule="evenodd">
        <g id="01" transform="translate(-1233.000000, -12.000000)">
            <g id="T">
                <g id="编组-6" transform="translate(1192.000000, 11.000000)">
                    <g id="ic_fd" transform="translate(41.000000, 1.000000)">
                        <rect id="矩形" x="0" y="0" width="16" height="16"></rect>
                        <path d="M1,11 L1,15 L5,15 L5,16 L-1.42108547e-14,16 L-1.3904693e-14,11 L1,11 Z M16,11 L16,16 L11,16 L11,15 L15,15 L15,11 L16,11 Z M11,5 L11,11 L5,11 L5,5 L11,5 Z M10,6 L6,6 L6,10 L10,10 L10,6 Z M5,7.10542736e-15 L5,1 L1,1 L1,5 L-1.42108547e-14,5 L-1.42108547e-14,7.10542736e-15 L5,7.10542736e-15 Z M16,3.59863793e-14 L16,5 L15,5 L15,1 L11,1 L11,3.50678942e-14 L16,3.59863793e-14 Z" id="形状结合备份-3" fill="#FFFFFF"></path>
                    </g>
                </g>
            </g>
        </g>
    </g>
</svg>