<?xml version="1.0" encoding="UTF-8"?>
<svg width="16px" height="16px" viewBox="0 0 16 16" version="1.1" xmlns="http://www.w3.org/2000/svg" xmlns:xlink="http://www.w3.org/1999/xlink">
    <title>ic_queen</title>
    <defs>
        <rect id="path-1" x="0" y="0" width="16" height="16"></rect>
    </defs>
    <g id="页面-1" stroke="none" stroke-width="1" fill="none" fill-rule="evenodd">
        <g id="01" transform="translate(-209.000000, -12.000000)">
            <g id="T">
                <g id="编组-5" transform="translate(13.000000, 11.000000)">
                    <g id="ic_queen" transform="translate(196.000000, 1.000000)">
                        <mask id="mask-2" fill="white">
                            <use xlink:href="#path-1"></use>
                        </mask>
                        <g id="蒙版"></g>
                        <path d="M16,9 L16,16 L9,16 L9,9 L16,9 Z M15,10 L10,10 L10,15 L15,15 L15,10 Z M3,9 L3,13 L7,13 L7,14 L2,14 L2,9 L3,9 Z M14,2 L14,7 L13,7 L13,3 L9,3 L9,2 L14,2 Z M7,7.91899879e-12 L7,7 L0,7 L0,7.91899879e-12 L7,7.91899879e-12 Z M6,1 L1,1 L1,6 L6,6 L6,1 Z" id="形状结合备份-4" fill="#FFFFFF" mask="url(#mask-2)"></path>
                    </g>
                </g>
            </g>
        </g>
    </g>
</svg>