<?xml version="1.0" encoding="UTF-8"?>
<svg width="17px" height="18px" viewBox="0 0 17 18" version="1.1" xmlns="http://www.w3.org/2000/svg" xmlns:xlink="http://www.w3.org/1999/xlink">
    <title>ic_share</title>
    <g id="页面-1" stroke="none" stroke-width="1" fill="none" fill-rule="evenodd">
        <g id="01" transform="translate(-1192.000000, -11.000000)">
            <g id="T">
                <g id="编组-6" transform="translate(1192.000000, 11.000000)">
                    <g id="ic_share" transform="translate(0.000000, 0.500000)">
                        <polygon id="矩形" points="0 1.13242749e-14 17 1.13242749e-14 17 17 0 17"></polygon>
                        <path d="M14,0.5 C15.6568542,0.5 17,1.84314575 17,3.5 C17,5.15685425 15.6568542,6.5 14,6.5 C12.9487009,6.5 12.0237039,5.95923685 11.4879907,5.1406924 L6.91350541,7.78188209 C6.97002442,8.01196545 7,8.25248214 7,8.5 C7,8.74751786 6.97002442,8.98803455 6.91350541,9.21811791 L11.4879907,11.8593076 C12.0237039,11.0407632 12.9487009,10.5 14,10.5 C15.6568542,10.5 17,11.8431458 17,13.5 C17,15.1568542 15.6568542,16.5 14,16.5 C12.3431458,16.5 11,15.1568542 11,13.5 C11,13.2524821 11.0299756,13.0119655 11.0864946,12.7818821 L6.51200934,10.1406924 C5.97629614,10.9592368 5.05129907,11.5 4,11.5 C2.34314575,11.5 1,10.1568542 1,8.5 C1,6.84314575 2.34314575,5.5 4,5.5 C5.05129907,5.5 5.97629614,6.04076315 6.51200934,6.8593076 L11.0864946,4.21811791 C11.0299756,3.98803455 11,3.74751786 11,3.5 C11,1.84314575 12.3431458,0.5 14,0.5 Z M14,11.5 C12.8954305,11.5 12,12.3954305 12,13.5 C12,14.6045695 12.8954305,15.5 14,15.5 C15.1045695,15.5 16,14.6045695 16,13.5 C16,12.3954305 15.1045695,11.5 14,11.5 Z M4,6.5 C2.8954305,6.5 2,7.3954305 2,8.5 C2,9.6045695 2.8954305,10.5 4,10.5 C5.1045695,10.5 6,9.6045695 6,8.5 C6,7.3954305 5.1045695,6.5 4,6.5 Z M14,1.5 C12.8954305,1.5 12,2.3954305 12,3.5 C12,4.6045695 12.8954305,5.5 14,5.5 C15.1045695,5.5 16,4.6045695 16,3.5 C16,2.3954305 15.1045695,1.5 14,1.5 Z" id="形状结合" fill="#FFFFFF"></path>
                    </g>
                </g>
            </g>
        </g>
    </g>
</svg>