<?xml version="1.0" encoding="UTF-8"?>
<svg width="16px" height="16px" viewBox="0 0 16 16" version="1.1" xmlns="http://www.w3.org/2000/svg" xmlns:xlink="http://www.w3.org/1999/xlink">
    <title>ic_top</title>
    <defs>
        <rect id="path-1" x="0" y="0" width="16" height="16"></rect>
    </defs>
    <g id="页面-1" stroke="none" stroke-width="1" fill="none" fill-rule="evenodd">
        <g id="01" transform="translate(-169.000000, -12.000000)">
            <g id="T">
                <g id="编组-5" transform="translate(13.000000, 11.000000)">
                    <g id="ic_top" transform="translate(156.000000, 1.000000)">
                        <mask id="mask-2" fill="white">
                            <use xlink:href="#path-1"></use>
                        </mask>
                        <g id="蒙版"></g>
                        <path d="M16,9 L16,16 L9,16 L9,15 L15,15 L15,9 L16,9 Z M13,3 L13,13 L3,13 L3,3 L13,3 Z M12,4 L4,4 L4,12 L12,12 L12,4 Z M7,1.77635684e-15 L7,1 L1,1 L1,7 L-5.32907052e-15,7 L-5.32907052e-15,1.77635684e-15 L7,1.77635684e-15 Z" id="形状结合备份-3" fill="#FFFFFF" mask="url(#mask-2)"></path>
                    </g>
                </g>
            </g>
        </g>
    </g>
</svg>